/* XPM */
static char *_1fb8e74e6b84bfcf371908b597e6299mXmtt6R9tE3Vj5TB[] = {
/* columns rows colors chars-per-pixel */
"50 50 23 1 ",
"  c None",
". c #8C8E8F",
"X c #B1C9C5",
"o c #50706E",
"O c #86B0AB",
"+ c #B8D0CE",
"@ c #303938",
"# c #629089",
"$ c #909291",
"% c #7C8E8D",
"& c #C2C3C3",
"* c #273230",
"= c #4A615F",
"- c #6E9D96",
"; c #5C7774",
": c #516663",
"> c #3E4948",
", c #B3C9C7",
"< c #3B3E3E",
"1 c #395551",
"2 c #4C5957",
"3 c #A0C2C1",
"4 c #637675",
/* pixels */
"                                                  ",
"                       ....                       ",
"                     ...XX...                     ",
"                    ..XXooXX..                    ",
"                  ...XXooooXX..                   ",
"                ...XXXooOOooXX...                 ",
"               ..XXXoooOO+OoooXX..                ",
"              ..XXXooOOO+++OOooXX...              ",
"             ..XXXooOOO+O+O+OOoooXX..             ",
"           ...XXoooOOOO+O+OOOOOOooXX..            ",
"         ...XXXooOOOOOOO+++OOOOOOooXX...          ",
"        ..XXXoooOOOOOOOOO+O+OOOOOOooXXX...        ",
"       ..XXoooOOOOOOOOO+O+O+OOOOOOOoooXXX..       ",
"      ..XXooOOOOOOOOOOOO+++OOOOOOOOOOoooXX...     ",
"    ...XoooOOOOOOOOOOOOOO+OOOOOOOOOOOOOoooXX..    ",
"  ...XXooOOOOOOOOOOOOOOOOOOOOOOOOOOOOOOOOooXX..@  ",
"  @XXXXooooooooooooooooooooooooooooooooooooXXXX@  ",
"  @XXXXXXXXXXXXXXXXXXXXXXXXXXXXXXXXXXXXXXXXXXXX@  ",
"  @@@@@@@@@@@@@@@@@@@@@@@@@@@@@@@@@@@@@@@@@@@@@@  ",
"    @########################################@    ",
"    @@@@@@@@@@@@@@@@@@@@@@@@@@@@@@@@@@@@@@@@@@    ",
"      $%%%%%%&  $%%%%%%&  $%%%%%%&  $%%%%%%&      ",
"      $$****&&  $$****&&  $$****&&  $$****&&      ",
"       $****&    $****&    $****&    $****&       ",
"       $=--;&    $=--;&    $=--;&    $=--;&       ",
"       $=--;&    $=--;&    $=--;&    $=--;&       ",
"       $=--;&    $=--;&    $=--;&    $=--;&       ",
"       $=--;&    $=--;&    $=--;&    $=--;&       ",
"       $=--;&    $=--;&    $=--;&    $=--;&       ",
"       $=--;&    $=--;&    $=--;&    $=--;&       ",
"       $=--;&    $=--;&    $=--;&    $=--;&       ",
"       $=--;&    $=--;&    $=--;&    $=--;&       ",
"       $=--;&    $=--;&    $=--;&    $=--;&       ",
"       $=--;&    $=--;&    $=--;&    $=--;&       ",
"       $=--;&    $=--;&    $=--;&    $=--;&       ",
"       $=--;&    $=--;&    $=--;&    $=--;&       ",
"       $=--;&    $=--;&    $=--;&    $=--;&       ",
"       $=--;&    $=--;&    $=--;&    $=--;&       ",
"       $=--;&    $=--;&    $=--;&    $=--;&       ",
"       $=--;&    $=--;&    $=--;&    $=--;&       ",
"       $::::&    $::::&    $::::&    $::::&       ",
"      $$::::&&  $$::::&&  $$::::&&  $$::::&&      ",
"      $>>>>>>&  $>>>>>>&  $>>>>>>&  $>>>>>>&      ",
"      $,,,,,,&  $,,,,,,&  $,,,,,,&  $,,,,,,&      ",
"     <<<<<<<<<<<<<<<<<<<<<<<<<<<<<<<<<<<<<<<<     ",
"     <11111111111111111111111111111111111111<     ",
"   <<<22222222222222222222222222222222222222<<<   ",
"   <333333333333333333333333333333333333333333<   ",
"   <444444444444444444444444444444444444444444<   ",
"   <<<<<<<<<<<<<<<<<<<<<<<<<<<<<<<<<<<<<<<<<<<<   "
};
