/* XPM */
static char *f631a41eea604f29cc089f4ebe4b6b0drnH2Iv51cPvAFHVi[] = {
/* columns rows colors chars-per-pixel */
"32 32 8 1 ",
"  c white",
". c #606060",
"X c #773F1C",
"o c #8C471B",
"O c #994F20",
"+ c black",
"@ c #9B5223",
"# c #B5622D",
/* pixels */
"                ................",
"                ................",
"                ................",
"                ................",
"               XX...............",
"               XX...............",
"             XXooXX.............",
"             XXooXX.............",
"           XXooooooXX...........",
"           XXooooooXX...........",
"           XXXXooooooXX.........",
"           XXXXooooooXX.........",
"         XXOOOOXXXXooXX.........",
"         XXOOOOXXXXooXX.........",
"       XXOO  OOOOOO  XXXX.......",
"       XXOO  OOOOOO  XXXX.......",
".......XX  ++  OO  ++  OOXX     ",
".......XX  ++  OO  ++  OOXX     ",
".....XX@@  ++  XX  ++  OOXX     ",
".....XX@@  ++  XX  ++  OOXX     ",
".....XX@@@@  @@@@XX  @@XXXX     ",
".....XX@@@@  @@@@XX  @@XXXX     ",
"...XXXXXX@@@@@@@@@@@@@@@@@@XX   ",
"...XXXXXX@@@@@@@@@@@@@@@@@@XX   ",
".XX######XX          XX@@@@@@XX ",
".XX######XX          XX@@@@@@XX ",
".XX##########      ####XX@@@@XX ",
".XX##########      ####XX@@@@XX ",
"...XXXXXXXXXXXXXXXXXXXXXXXXXX   ",
"...XXXXXXXXXXXXXXXXXXXXXXXXXX   ",
"................                ",
"................                "
};
