/* XPM */
static char *b4660b2095b54957e263e4a6d5726bb5InM0wuasPOUbTZZv[] = {
/* columns rows colors chars-per-pixel */
"32 32 11 1 ",
"  c white",
". c #606060",
"X c #773F1C",
"o c #8C471B",
"O c #994F20",
"+ c black",
"@ c #CD1818",
"# c #9B5223",
"$ c #DA2222",
"% c #F33838",
"& c #B5622D",
/* pixels */
"                ................",
"                ................",
"                ................",
"                ................",
"               XX...............",
"               XX...............",
"             XXooXX.............",
"             XXooXX.............",
"           XXooooooXX...........",
"           XXooooooXX...........",
"         XXooooooXXXX...........",
"         XXooooooXXXX...........",
"         XXooXXXXOOOOXX.........",
"         XXooXXXXOOOOXX.........",
"       ++++XXOOOOOOOO  XX.......",
"     ++++++XXOOOOOOOO  XX.......",
".....++@@@@++OOOOOO  ++XX       ",
"....++@@@@@++OOOOOO  ++XX       ",
"...+++@@@@@++OOXXXX  ++##XX     ",
"...++@@@@@@++OOXXXX  ++##XX     ",
"..++$@@@@@@++XX######  ##XX     ",
"..++$$$$$@@++XX######  ##XX     ",
".++$$$$$$$$$$++########XXXXXX   ",
"+++$$$$$$$$$$++########XXXXXX   ",
"++%%%%$$$$+++XXXXXXXXXX      XX ",
"+%%%%%%%$$+++XXXXXXXXXX      XX ",
"+%%%%%%%%++&&&&&&&&&&&&&&    XX ",
"+%%%%%%%%++&&&&&&&&&&&&&&    XX ",
"++%%%++++XXXXXXXXXXXXXXXXXXXX   ",
"+++++++++XXXXXXXXXXXXXXXXXXXX   ",
".++++...........                ",
"................                "
};
