/* XPM */
static char *_366c8dab243438adf888b82a85326f27WeHt5fhuzY9hsRf[] = {
/* columns rows colors chars-per-pixel */
"32 32 11 1 ",
"  c white",
". c #606060",
"X c #773F1C",
"o c #8C471B",
"O c #994F20",
"+ c black",
"@ c #CD1818",
"# c #9B5223",
"$ c #DA2222",
"% c #F33838",
"& c #B5622D",
/* pixels */
"                ................",
"                ................",
"                ................",
"                ................",
"               XX...............",
"               XX...............",
"             XXooXX.............",
"             XXooXX.............",
"           XXooooooXX...........",
"           XXooooooXX...........",
"           XXXXooooooXX.........",
"           XXXXooooooXX.........",
"         XXOOOOXXXXooXX.........",
"         XXOOOOXXXXooXX.........",
"       XX  OOOOOOOOXX++++.......",
"       XX  OOOOOOOOXX++++++.....",
".......XX++  OOOOOO++@@@@++     ",
".......XX++  OOOOOO++@@@@@++    ",
".....XX##++  XXXXOO++@@@@@+++   ",
".....XX##++  XXXXOO++@@@@@@++   ",
".....XX##  ######XX++@@@@@@$++  ",
".....XX##  ######XX++@@$$$$$++  ",
"...XXXXXX########++$$$$$$$$$$++ ",
"...XXXXXX########++$$$$$$$$$$+++",
".XX      XXXXXXXXXX+++$$$$%%%%++",
".XX      XXXXXXXXXX+++$$%%%%%%%+",
".XX    &&&&&&&&&&&&&&++%%%%%%%%+",
".XX    &&&&&&&&&&&&&&++%%%%%%%%+",
"...XXXXXXXXXXXXXXXXXXXX++++%%%++",
"...XXXXXXXXXXXXXXXXXXXX+++++++++",
"................           ++++ ",
"................                "
};
