/* XPM */
static char *_bfc9883a9d54492e9e97f99f25a64e8GUstDIZBWIf9Reca[] = {
/* columns rows colors chars-per-pixel */
"32 32 9 1 ",
"  c white",
". c #606060",
"X c #773F1C",
"o c #8C471B",
"O c black",
"+ c #CD1818",
"@ c #DA2222",
"# c #F33838",
"$ c #9B5223",
/* pixels */
"                ................",
"                ................",
"                ................",
"                ................",
"               XX...............",
"               XX...............",
"             XXooXX.............",
"             XXooXX.............",
"           XXooooooXX...........",
"           XXooooooXX...........",
"           XXXXooooooXX.........",
"           XOOOOOOOOOXX.........",
"         OOOOOOOOOOOOOO.........",
"         OOOO++++++OOOO.........",
"       OO++++++++++++OOOO.......",
"       OO+++++++++++++OOO.......",
".....OOOO@OO++O++OO++O+OOOO     ",
".....OOOO@O++O+O+O++O+O+OOO     ",
"...OOOO@@@O@@OOO@O++OOO++OO     ",
"...OOOO@@@OO@O@O@OO+O+O++OO     ",
".OOOO@@@@@@@@@@@@@@@@@@@@OO     ",
".OOOO@@@@@@@@@@@@@@@@@@@@OO     ",
".OO######@@@@@@@@@@@@@@@@OOOX   ",
".OO######OO@OO@@@OO@@O@@OOOOX   ",
".OO#####O##O##O#O##O#OO@O@OO$XX ",
".OO#####O##O##O#OOOO#O#OO@OO$XX ",
".OO#####O#####O#O##O#O##O#OOOXX ",
".OO#####O#####O#O##O#O##O#OOOXX ",
".OOOOO#####################OO   ",
".OOOOOOOOOO################OO   ",
"....OOOOOOOOOOOOOOOOOOOOOOOO    ",
".........OOOOOOOOOOOOOOOOO      "
};
