/* XPM */
static char *d04e4926cfce416cbdaa7b9cbf02ff20ixJBJQcdAbS0mPbC[] = {
/* columns rows colors chars-per-pixel */
"50 50 164 2 ",
"   c None",
".  c black",
"X  c #452E03",
"o  c #453203",
"O  c #563907",
"+  c #593C07",
"@  c #5F4008",
"#  c #6C4B07",
"$  c #654408",
"%  c #694708",
"&  c #6D4909",
"*  c #724E07",
"=  c #734D09",
"-  c #745207",
";  c #7B5506",
":  c #7D5906",
">  c #77500A",
",  c #7C530A",
"<  c #81570A",
"1  c #85590B",
"2  c #885B0B",
"3  c #866305",
"4  c #8B6305",
"5  c #8D6905",
"6  c #946404",
"7  c #946D05",
"8  c #9E6D05",
"9  c #9C7404",
"0  c #A16E04",
"q  c #A67704",
"w  c #AD7603",
"e  c #A37904",
"r  c #AD7308",
"t  c #AD7B08",
"y  c #B37607",
"u  c #B47C07",
"i  c #BA7C06",
"p  c #C17E06",
"a  c #AD8603",
"s  c #AD8208",
"d  c #B38307",
"f  c #BB8506",
"g  c #B58A07",
"h  c #BB8C06",
"j  c #BD9305",
"k  c #C28305",
"l  c #CA8505",
"z  c #C28B05",
"x  c #CB8C04",
"c  c #D08704",
"v  c #D38B04",
"b  c #DA8E03",
"n  c #C29405",
"m  c #CA9404",
"M  c #C69A04",
"N  c #CB9C04",
"B  c #D29303",
"V  c #DC9303",
"C  c #D39904",
"Z  c #DC9B03",
"A  c #E49502",
"S  c #E59A02",
"D  c #ED9A02",
"F  c #F39E01",
"G  c #CDA205",
"H  c #D2A404",
"J  c #DCA603",
"K  c #D4A904",
"L  c #DBAB03",
"P  c #DDB203",
"I  c #E5A202",
"U  c #EBA502",
"Y  c #E4AD03",
"T  c #ECAC02",
"R  c #F4A201",
"E  c #FDA500",
"W  c #F4AB01",
"Q  c #FFAB00",
"!  c #E4B502",
"~  c #ECB302",
"^  c #E6BB02",
"/  c #EDBD02",
"(  c #F5B301",
")  c #FEB400",
"_  c #F7BF01",
"`  c #F4BE00",
"'  c #F3BB01",
"]  c #FFBC00",
"[  c #EBC102",
"{  c #EFC201",
"}  c #ECC002",
"|  c #EEC102",
" . c #EDC202",
".. c #EDC402",
"X. c #EEC402",
"o. c #F1C000",
"O. c #F2C101",
"+. c #F1C201",
"@. c #F3C301",
"#. c #F6C101",
"$. c #F0C401",
"%. c #F0C501",
"&. c #F2C401",
"*. c #F3C401",
"=. c #F3C701",
"-. c #F7C501",
";. c #F9C100",
":. c #F9C301",
">. c #FBC400",
",. c #FBC600",
"<. c #FDC500",
"1. c #FEC500",
"2. c #FDC700",
"3. c #FCC700",
"4. c #FFC600",
"5. c #FFC300",
"6. c #F3C901",
"7. c #F6C901",
"8. c #F6CA01",
"9. c #F7CC01",
"0. c #F9C801",
"q. c #F9CB01",
"w. c #FBCA00",
"e. c #FBCB00",
"r. c #FEC800",
"t. c #FFC800",
"y. c #FFC900",
"u. c #FCCA00",
"i. c #FDCA00",
"p. c #FFCA00",
"a. c #F9CD01",
"s. c #FBCC00",
"d. c #F9CF01",
"f. c #F9CE01",
"g. c #FBCE00",
"h. c #FACF00",
"j. c #FBCF00",
"k. c #FDCC00",
"l. c #FECC00",
"z. c #FFCC00",
"x. c #FECD00",
"c. c #FFCD00",
"v. c #FCCF00",
"b. c #FDCF00",
"n. c #FECE00",
"m. c #FFCE00",
"M. c #FECF00",
"N. c #FFCF00",
"B. c #FAD000",
"V. c #FBD000",
"C. c #FBD100",
"Z. c #FCD000",
"A. c #FDD000",
"S. c #FCD100",
"D. c #FDD100",
"F. c #FFD000",
"G. c #FED100",
"H. c #FFD100",
"J. c #FDD200",
"K. c #FED200",
"L. c #FFD200",
"P. c #FED300",
"I. c #FFD300",
"U. c #FFD400",
/* pixels */
"                                                                                                    ",
"                                        . . . . . . . . .                                           ",
"                                  . . . o s d g g g d s o . . . .                                   ",
"                            . . . o s h n N H K K K H N n j g s o . .                               ",
"                          . o s g n G K P ^ [ ......[ ^ P L H N j d o . .                           ",
"                      . . o h M K P ^ { 6.9.s.C.C.C.s.9.6.*.[ ^ P G n d o . .                       ",
"                    . o d n K ! { *.9.s.C.U.U.U.U.U.U.U.F.C.s.8.*.^ P G n d o .                     ",
"                  . o h N P / 6.s.F.F.F.F.F.U.U.F.F.F.U.U.F.F.F.s.8.*.^ L N h o .                   ",
"                . o h H ! { 8.F.F.F.F.F.F.F.F.F.F.F.F.F.F.F.F.F.F.F.s.8.{ ! H h o .                 ",
"              . o h H ! *.e.F.F.F.F.F.F.F.F.F.F.F.F.F.F.F.F.F.F.F.F.F.F.s.*.! H h o .               ",
"            . o h H ! *.s.z.F.F.F.F.F.F.F.F.F.F.F.F.F.F.F.F.F.F.F.F.F.F.F.s.*.! H h o .             ",
"          . o g H ! @.e.z.z.z.z.z.F.z.F.F.z.z.z.z.z.z.z.F.F.F.F.z.z.z.z.z.z.e.@.! H g o .           ",
"          . d N ! @.e.z.z.z.z.z.z.z.z.z.@.j 7 : # $ & - : 9 H z.z.z.z.z.z.z.z.e.@.! N d .           ",
"        . o n L / e.z.z.z.z.z.z.z.z.H 5 $ % & = = = = = = & $ % a p.z.z.z.z.z.z.e./ L n o .         ",
"      . o g H ~ -.p.z.z.z.z.z.z.@.3 $ & = , , < < < < < , , > = $ - H z.z.z.z.z.p.-.! N d .         ",
"      . t m Y ` 3.p.p.p.p.p.p.! # & = , < 1 1 1 1 1 1 1 1 1 < , = & @ n p.p.p.p.p.,.` L z o .       ",
"      . g H ~ ;.3.p.p.p.p.p.` - & , < 1 1 1 1 1 < < < < 1 1 1 1 , = $ O M p.p.p.p.3.#.! N d .       ",
"    . o n L ` 3.3.3.3.p.p.p.3 % , < 1 1 1 < , , = = = = , , < < , = $ : _ p.p.p.3.3.5.' J h o .     ",
"    . t m Y _ 3.3.3.3.3.3.N $ = < 1 2 1 < , = % - 3 : % & = , , = % 4 ;.3.3.3.3.3.3.5._ Y m t .     ",
"    . f C ~ ;.3.3.3.3.3.3.; & , 1 2 1 < , & - n 5.3.3.5.N : % % $ 9 3.3.3.3.3.3.3.3.3._ ~ C d .     ",
"  . o z J ' 5.3.5.3.3.3.H $ = < 1 2 1 , = ; ' 3.3.3.3.3.3._ 4 + e 3.3.3.3.3.3.3.3.3.3.5.' J f .     ",
"  . t m Y _ 5.5.5.5.5.5.9 & , 1 2 2 < , % ~ 5.5.5.5.5.5.5.5.5.N 5.5.5.5.5.5.5.5.5.5.5.] ' J z o .   ",
"  . u C ~ _ 5.5.5.5.5.5.: & , 1 2 1 < = 7 5.5.5.5.5.5.5.5.5.5.5.5.5.5.5.5.5.5.5.5.5.5.] _ Y m t .   ",
"  . d C ~ ] ] ] ] ] ] ] * = < 1 2 1 , & f ] ] ] ] ] ] ] ] ] ] ] ] ] ] ] ] ] ] ] ] ] ] ] ] T C u .   ",
"  . d C ~ ] ] ] ] ] ] ] $ = < 1 2 1 , & n ] ] ] ] ] ] ] ] ] ] ] ] ] ] ] ] ] ] ] ] ] ] ] ] T C d .   ",
"  . d C T ] ] ] ] ] ] ] # = < 1 2 1 , & h ] ] ] ] ] ] ] ] ] ] ] ] ] ] ] ] ] ] ] ] ] ] ] ] T C d .   ",
"  . u C T ( ] ] ] ] ] ] ; = , 1 2 1 , = q ] ] ] ] ] ] ] ] ] ] ] ] ] ] ] ] ] ] ] ] ] ] ] ( T C u .   ",
"  . u B U ( ] ] ] ] ] ] 3 & , 1 2 1 < = ; ] ] ] ] ] ] ] ] ] ] ] ] ] ] ] ] ] ] ] ] ] ] ] ( U B u .   ",
"  . t x I ( ) ] ] ] ] ] d % , < 2 2 1 , & z ] ] ] ] ] ] ] ] U ; U ] ] ] ] ] ] ] ] ] ] ) ( I x t .   ",
"  . X z Z W ) ) ) ) ) ) U $ = , 1 2 1 < = & Z ) ) ) ) ) ) B * $ % I ) ) ) ) ) ) ) ) ) ) W Z z X .   ",
"    . f Z W ) ) ) ) ) ) ) 4 % , < 1 2 1 , = & 8 m U W B 4 % & = & % C ) ) ) ) ) ) ) ) ) U B i .     ",
"    . u B U ) ) ) ) ) ) ) U $ = , 1 2 1 1 , , = % $ $ % = , , , , & $ x ) ) ) ) ) ) ) W I x t .     ",
"    . r x S W ) ) ) ) ) ) ) k $ = , 1 1 1 1 < , , > > , , < 1 1 , = $ O z ) ) ) ) ) ) W Z k X .     ",
"    . X f V R Q ) ) ) ) ) ) ) 0 $ = , < 1 1 1 1 < < < < 1 1 1 < , = $ * W ) ) ) ) ) Q U B u .       ",
"      . u x S W Q ) ) ) ) ) ) Q w $ & > , < < < < < < < < < , , = $ ; W ) ) ) ) ) Q R S l r .       ",
"      . X k V U W Q Q Q Q Q Q Q Q B ; $ & = = > , , , , = = = % $ w Q Q Q Q Q Q Q W U B i X .       ",
"        . y x S R W Q Q Q Q Q Q Q Q Q V 8 # $ $ $ $ $ $ $ $ * 6 V Q Q Q Q Q Q Q W U V k o .         ",
"        . X i v S R W Q Q Q Q Q Q Q Q Q Q Q A l i w u k x S Q Q Q Q Q Q Q Q Q W R S x u .           ",
"          . X i v S R W Q Q Q Q Q Q Q Q Q Q Q Q Q Q Q Q Q Q Q Q Q Q Q Q Q Q W R S v i X .           ",
"            . X i v S R W Q Q Q Q Q Q Q Q Q Q Q Q Q Q Q Q Q Q Q Q Q Q Q Q E R S v i X .             ",
"              . X i v S R E Q Q Q Q Q Q Q Q Q Q Q Q Q Q Q Q Q Q Q Q Q Q E R S v i X .               ",
"                . X i v A R E E Q Q Q Q Q Q E E Q Q Q E Q E Q Q Q E E R D A v i X .                 ",
"                  . X i v A D R E E E E E E E E E E E E E E E E E E F D V l i X .                   ",
"                    . X i l b A D F R E E E E E E E E E E E E R F D A v k y X .                     ",
"                      . X y i l v V A D F R E E E E E E R F D A V v l i X . .                       ",
"                        . . X r i p l v V A D D D D D D A V v l p y r X .                           ",
"                            . . . X r y p l c v v v v c l p i r X . . .                             ",
"                                  . . . X r y y y y y y r X . . .                                   ",
"                                        . . . . . . . . . .                                         ",
"                                                                                                    "
};
