/* XPM */
static char *b521593f0e9a4fe9a89abf4f379b7d29SvzXjwxuJr3eKaWb[] = {
/* columns rows colors chars-per-pixel */
"32 32 8 1 ",
"  c white",
". c black",
"X c #606060",
"o c #DBE6E7",
"O c #B5D5D8",
"+ c #869496",
"@ c #A3BFC3",
"# c #A0ADAF",
/* pixels */
"          ............XXXXXXXXXX",
"         .oooooooooooo.XXXXXXXXX",
"         .oO+......+Oo.XXXXXXXXX",
"        .oO+.++++++.+Oo.XXXXXXXX",
"      ..oO+.+OOOOOO+.+o...XXXXXX",
"     .O.oO+.+OOOOOO+.+Oo.O.XXXXX",
"     ...oO+.+OOOOOO+.+Oo...XXXXX",
"     .o.oO+.+OOOOOO+.+Oo.o.XXXXX",
"     .oO.o+.+OOOOOO+.+o.Oo.XXXXX",
"     .oO.o+.+OOOOOO+.+o.Oo.XXXXX",
"     .oOO.o+.+OOOO+.+o.O@o.XXXXX",
"      .+O.oO+.++++.+Oo.O+.XXXXXX",
"      .+OO.o.O....O.o.OO+.XXXXXX",
"       .+OO.oO++++Oo.OO+.XXXXXXX",
"        .++.++++++++.++.XXXXXXXX",
"       ..................XXXXXXX",
"XXXXXXX.oooooooooooooooo.       ",
"XXXXXXX.OOOOOOOOOOOOOOOO.       ",
"XXXXXXX..................       ",
"XXXXXXXX.++##########++.        ",
"XXXXXXXX.+OooooooooooO+.        ",
"XXXXXXXXX.+OooooooooO+.         ",
"XXXXXXXXX.+OooooooooO+.         ",
"XXXXXXXXXX.+OooooooO+.          ",
"XXXXXXXXXXX.+OooooO+.           ",
"XXXXXXXXXXXX.+OooO+.            ",
"XXXXXXXXXXXX.+OooO+.            ",
"XXXXXXXXXXXX.+OooO+.            ",
"XXXXXXXXXX............          ",
"XXXXXXXXX.oooOOOOOOooo.         ",
"XXXXXXXXX.++++++++++++.         ",
"XXXXXXXXX..............         "
};
