/* XPM */
static char *_09a00447b014d6e85be5d12b1c92499uIpFlB3h36OeY2Nh[] = {
/* columns rows colors chars-per-pixel */
"32 32 8 1 ",
"  c white",
". c #606060",
"X c black",
"o c #B5D5D8",
"O c #DBE6E7",
"+ c #869496",
"@ c #A3BFC3",
"# c #A0ADAF",
/* pixels */
"                ................",
"                ................",
"                ................",
"                ................",
"      XXXXXXXXXXXXXXXXXXXX......",
"     XooooooooooooooooooooX.....",
"     XXXXXXXXXXXXXXXXXXXXXX.....",
"     XOooo++++++++++++oooOX.....",
"     XOooo++++++++++++oooOX.....",
"     XOooo++++++++++++oooOX.....",
"     XOooo++++++++++++oo@OX.....",
"      X+ooo++++++++++ooo+X......",
"      X+ooo++++++++++ooo+X......",
"       X+ooXXXXXXXXXXoo+X.......",
"        X+XOOOOOOOOOOX+X........",
"       XXXXXXXXXXXXXXXXXX.......",
".......XOOOOOOOOOOOOOOOOX       ",
".......XooooooooooooooooX       ",
".......XXXXXXXXXXXXXXXXXX       ",
"........X++##########++X        ",
"........X+oOOOOOOOOOOo+X        ",
".........X+oOOOOOOOOo+X         ",
".........X+oOOOOOOOOo+X         ",
"..........X+oOOOOOOo+X          ",
"...........X+oOOOOo+X           ",
"............X+oOOo+X            ",
"............X+oOOo+X            ",
"............X+oOOo+X            ",
"..........XXXXXXXXXXXX          ",
".........XOOOooooooOOOX         ",
".........X++++++++++++X         ",
".........XXXXXXXXXXXXXX         "
};
