/* XPM */
static char *_1d7523a92b944beeeb711148fbdd3557TpmskPvBBfJYKkd[] = {
/* columns rows colors chars-per-pixel */
"32 32 2 1 ",
"  c white",
". c #606060",
/* pixels */
"                ................",
"                ................",
"                ................",
"                ................",
"                ................",
"                ................",
"                ................",
"                ................",
"                ................",
"                ................",
"                ................",
"                ................",
"                ................",
"                ................",
"                ................",
"                ................",
"................                ",
"................                ",
"................                ",
"................                ",
"................                ",
"................                ",
"................                ",
"................                ",
"................                ",
"................                ",
"................                ",
"................                ",
"................                ",
"................                ",
"................                ",
"................                "
};
