/* XPM */
static char *_5719ee6e1d14d859b39cda3fcd0f233OjsFpByDUae9846R[] = {
/* columns rows colors chars-per-pixel */
"50 50 88 1 ",
"  c #44372A",
". c #43372A",
"X c #433629",
"o c #403428",
"O c #3C3125",
"+ c #372C22",
"@ c #33291F",
"# c #574839",
"$ c #362C22",
"% c #3C3025",
"& c #413428",
"* c #43362A",
"= c #382D23",
"- c #3D3126",
"; c #423629",
": c #413528",
"> c #3E3226",
", c #392E23",
"< c #2D241C",
"1 c #362C21",
"2 c #30271D",
"3 c #2B231A",
"4 c #3A2F24",
"5 c #403427",
"6 c #2D251C",
"7 c #32291F",
"8 c #3E3227",
"9 c #3F3327",
"0 c #423529",
"q c #382D22",
"w c #31281E",
"e c #3D3125",
"r c #2F261D",
"t c #282019",
"y c #272018",
"u c #2B231B",
"i c #31271E",
"p c #352A20",
"a c #3B2F24",
"s c #30271E",
"d c #2A221A",
"f c #2C231B",
"g c #332920",
"h c #251E17",
"j c #282119",
"k c #32281F",
"l c #342A20",
"z c #2E251C",
"x c #292119",
"c c #372D22",
"v c #362B21",
"b c #1F1913",
"n c #29211A",
"m c #2C241B",
"M c #1E1812",
"N c #261F17",
"B c #221C15",
"V c #3B3025",
"C c #261E17",
"Z c #201A14",
"A c #241D16",
"S c #261F18",
"D c #382E23",
"F c #332A20",
"G c #211B14",
"H c #2E261D",
"J c #1D1712",
"K c #1B1611",
"L c #352B21",
"P c #231C16",
"I c #271F18",
"U c #231D16",
"Y c #16120E",
"T c #1A1510",
"R c #3D3226",
"E c #221B15",
"W c #3B3024",
"Q c #1C1711",
"! c #211A14",
"~ c #14100C",
"^ c #17130E",
"/ c #191410",
"( c #1C1611",
") c #18130F",
"_ c #1D1812",
"` c #231C15",
"' c #19140F",
"] c #211B15",
/* pixels */
"    .XoO+@##$%&*     *&%$###=-&;X*.     X:>,@<####",
"    XoO123##@45*     *54@##67=O89o&0;X;0o-qw3#####",
"   X&e+rt###w,5*     *5,w##yuip$q,aO>8>-41sd####fg",
"  *:-+r#####@ao*     *o4w###hjf6rskl1$$pkzx####dwq",
" X:>cry####<v-:.     Xo47d##b#####n3m<mun#####mk=-",
";o-csy###MNrq>0X..*X0&>,ij############B#####3rp4>:",
"9V1rt####MNr$%9o&o98e4c@mCZ###AS##########t6@c%90*",
"4lzy######A3ivD444,1Fi6dhG###SuzH<dC####JAml4>&;. ",
"l<#####K###Cd<riisrmxC######SmwLvpwmC####CrD80*   ",
"z#####PP#######yyI#########ZI6@+DqLwuU###Ii4o*    ",
"####Iu6<u################YTbhdHkFlgimCb###rD9X    ",
"###nrl++pwzux######G##########Inum<fxAb###uLR0.   ",
"##6kcO>>O4+lwHut###IISA##############EMK##yw45X   ",
"#lv4>&00:5>V,vkzu3um<<f3dxSP##############h6$R0.  ",
"WWO9:* *;:9RWcls6ff<zzzzz<dhZQ##ECt#########@a&*  ",
"5o&0X.*0o>%,$Fs63xttxndf<mdhG###x<r2r<3IP###s,9X  ",
"XXX*X0o>a+lir<3#########yyCP###uw1D,c1gztU##rc9X  ",
".*X0o>4$7zu###################37,R999>4l<S##rq9X  ",
"X05-41w<x#######h!###~^######yrq>:X*X0>cr###i,o*  ",
"&>41ifI#####xfzzfy#####/KK(##3lO&*   X9qr##u74&.  ",
">,lzy######drF1+Lid#####K(###rq9X    X8+H##u74&*  ",
"VL#######bys+V>>e,guP###KQ##d7a&.    X8$z##x2q>:;.",
"Di#######EuL%o00&>,syb##)T##<L-0     X8+z##hdk=e90",
"L<##_K###Pmv-:XX:>,iyb##~###zc8X     X9=2###Ad2L48",
"kd##B`E###d@49&5>4l<A######A6+>:;XXXX09,w######f7,",
"rx##xudI###6l,a4$kmS#######Ed@,e>>>>>RV+id######d@",
"####sg7z###ymsws6d##########CmkL11111vpkzx`J)####<",
"###w1,,l6###ASII######AhPG###I36zz<<<<<mdy`M'#####",
"#@F+V>>4F<##########n<r2zd########################",
"4,4-9::8,@u######hdr@$,4cgH####################Su#",
"999&;*X:>,wy####B37cV>5o>a$7rz<utBM##GSuzrHzzzrilq",
";;X*   *0>+<`###Ss=-9:0;09-4=1lsd`J##Bdsp11$+c,4%>",
"        *&4wI###jwDO>95&::&9>VckdE###Pml4e>>895o:0",
"         0Ogx##bN6@v+=4%>959>4LrS####EulW9:;XX**. ",
"         0O@x##Q]yfzr2wl$,4,+@zy######tsq>0.      ",
"       .Xo4wS##########u<r2rmjU#########@49X      ",
" .*XX00&5e$6#############AAP######GBB###6LO&*     ",
"0:o98ROa,Lrt#####Iumuy###########PxfdI##x2c-&0X*. ",
"9O4=+vlkrmI]J##!yH@lk<h#########btrgk<###di+WR9o:0",
"4v7srzfx###Q###xs+W%,7xb####)###]nw11ku###xzkLc4O9",
"Ls#############scRo5OLu]####!G###tz@L@6I###Aturkv4",
"#############E3F489>47d###Btufn###jmrruh########sL",
"###m<6mxUM##T]d7c44+kuh###ukvLkm####ytSBJ'########",
"cp@glpgrt!###bS<w7i6j`###d7,-e,g<#####!b#####At###",
"eW4W%%,FuPQ####yddx#####A<1-&&>,gf##########jmrklc",
"&&&&:9Wlu###############U6+>0;:8,7dB######dz7v=,ae",
".*..Xo47####Z###########BupO&XX08=2y##GhurFcW>95o&",
"    *5,w###hxf6zzzmdh!###nk490..:eL<##t<FD%>&0X**.",
"    *54@##3z7L+$11L@rd#####,>0. X9,7##sLW9:0*     ",
"    *&%$##@$a>88>>>ODgz####,>0. *&Oc##$W9;.       "
};
