/* XPM */
static char *e2aba2272d8a42fd9c4b2f9de87019f8wo87XMy9bxMUFnAw[] = {
/* columns rows colors chars-per-pixel */
"32 32 11 1 ",
"  c white",
". c #606060",
"X c #484848",
"o c #CDCDCD",
"O c #B4B4B4",
"+ c gray89",
"@ c #F3F3F3",
"# c #CE9465",
"$ c #A3734C",
"% c gray61",
"& c #777777",
/* pixels */
"                ................",
"         XXXXXXX................",
"       XXooooooOXX..............",
"     XXOOoooooooOOX.............",
"     XOOoo++++++ooOX............",
"    XOoo++@@@@@+++oOX...........",
"   XOooo+@@XXXX@++oOOX..........",
"   XOoo++@X####X@+ooOX..........",
"   XOoo++@X$$$$X@++oOX..........",
"   XOOo++@@XXXX@+++oOX..........",
"   XXOoo++@@@@@@++oOOX..........",
"   XXXOOo++++++++ooOXX....XX....",
"   XoXXOOo++++ooooXX%X..XXOOX...",
"   XooXXXOoooooOXXX&&X.XOOOOX...",
"   Xoo+++XXXXXXXXXXXXXXOOOOOX...",
"   Xoo+++++++@@@+++oooooOOOOX...",
"...Xooo+++++@@@@@+++++oooOOOX   ",
"...Xooo+++++@@@@@@@@++ooooOOX   ",
"...Xoooo+++@@@@@@@@@+++oooOOX   ",
"...XOOooo++@@@@@@@@@@++oooOOX   ",
"...XOOooo++@@@@@@@@@@+++oooOX   ",
"...XOOooo+++@@@@@@@@@@++oooOX   ",
"...XOOOooo++@@@@@@@@@@++oooOX   ",
"...XOOOooo++@@@@@@@@@@++oooOX   ",
"...XOOOooo+++@@@@@@@@@++oooOX   ",
"...XOOOooo+++@@@@@@@@+++oooOX   ",
"....XOOOoo+++@@@@@@@@++ooooOX   ",
".....XOOoo+++@@@@@@@+++oooXX    ",
"......XOooo+++@@@@@+++oooX      ",
".......XXoo+++@@@@++++ooX       ",
".........XXXXXXXXXXXXXXX        ",
"................                "
};
