/* XPM */
static char *b20c8a40649d4cb79ef4c13f4276b70eWXZqLbxzhZgZHVbj[] = {
/* columns rows colors chars-per-pixel */
"50 50 62 1 ",
"  c black",
". c black",
"X c #4A4A48",
"o c #3F3F3E",
"O c #2A2A29",
"+ c #D7AD63",
"@ c white",
"# c #9829B8",
"$ c #767676",
"% c #6F6F6F",
"& c #3F3F3F",
"* c #717171",
"= c gray24",
"- c #FEFEFE",
"; c gray1",
": c #F9F9F9",
"> c #010101",
", c #3A3A3A",
"< c gray42",
"1 c gray14",
"2 c #373737",
"3 c #E1E1E1",
"4 c #020202",
"5 c gray88",
"6 c gray87",
"7 c #525053",
"8 c #353535",
"9 c #676767",
"0 c #5E5C5F",
"q c gray12",
"w c #2F2F2F",
"e c #2D2D2D",
"r c #181818",
"t c #1B1B1B",
"y c #202020",
"u c black",
"i c None",
"p c #444444",
"a c gray25",
"s c black",
"d c black",
"f c #4B4B4B",
"g c gray28",
"h c black",
"j c black",
"k c #535353",
"l c #505050",
"z c gray32",
"x c #565656",
"c c gray34",
"v c #585858",
"b c #555555",
"n c #4E4E4E",
"m c #434343",
"M c gray26",
"N c gray23",
"B c gray22",
"V c gray21",
"C c #343434",
"Z c #313131",
"A c gray18",
"S c #2C2C2C",
/* pixels */
"                   .......                        ",
"                 ...XXXXX...                      ",
"                ..ooooooooo..                     ",
"               ..OOOOOOOOOOO..                    ",
"              .................                   ",
"              ..........++++++.                   ",
"              .................                   ",
"              .............@#..                   ",
"               ...............                    ",
"               .........+++++.                    ",
"               .........+++...                    ",
"                ........++++.                     ",
"                .............                     ",
"                .@@@@@@@@.                        ",
"                .$$%..&&&.                        ",
"                .$*....&=.                        ",
"                .-;.....-.                        ",
"                .:;.@@..:.                        ",
"                .%>@@@@.,.                        ",
"                .<>111..2.                        ",
"                .34==11.5.                        ",
"                .64@@@@.6.                        ",
"                .7>@@@@.8.                        ",
"                .7>==11.8.                        ",
"                .64=..1.6.                        ",
"                .64.$$1.6.                        ",
"                .9>0000.q.                        ",
"                .9>&&&&.q.                        ",
"                .64.w.w.6.                        ",
"                .64.w...6.                        ",
"                .8e....eq.                        ",
"                ......rty.                        ",
"                ui.pa.....                        ",
"                sd.fggf...                        ",
"                hj.kllzx..                        ",
"                 h.cxxcv..                        ",
"                  .xxbbb..                        ",
"                  .zzzzz..                        ",
"                  .nnnnn..                        ",
"                  .ffffff......                   ",
"                  .ggggggggg....                  ",
"                  .mmmmmmmmmmmM..                 ",
"                  .&&&&&&&&&&&&&..                ",
"                  .NNNNNNNNNNNNNN.                ",
"                  .BBBVBBBB222222..               ",
"                  .CCCCCCCCCCCCCC..               ",
"                  .ZZZZZZZZZZZZZ..                ",
"                  .wwwwwwwwwAAA...                ",
"                  .....SSSS.......                ",
"                  ...............                 "
};
