/* XPM */
static char *d26f2ecf12e0450ffbc8b90f734a1ed1T8mnt69t2KxYS9YB[] = {
/* columns rows colors chars-per-pixel */
"50 50 62 1 ",
"  c black",
". c black",
"X c #4A4A48",
"o c #3F3F3E",
"O c #2A2A29",
"+ c #D7AD63",
"@ c #9829B8",
"# c white",
"$ c #3F3F3F",
"% c #6F6F6F",
"& c #767676",
"* c gray24",
"= c #717171",
"- c #FEFEFE",
"; c gray1",
": c #F9F9F9",
"> c #3A3A3A",
", c #010101",
"< c #373737",
"1 c gray14",
"2 c gray42",
"3 c gray88",
"4 c #020202",
"5 c #E1E1E1",
"6 c gray87",
"7 c #353535",
"8 c #525053",
"9 c gray12",
"0 c #5E5C5F",
"q c #676767",
"w c #2F2F2F",
"e c #2D2D2D",
"r c #202020",
"t c #1B1B1B",
"y c #181818",
"u c gray25",
"i c #444444",
"p c None",
"a c black",
"s c #4B4B4B",
"d c gray28",
"f c black",
"g c black",
"h c #565656",
"j c gray32",
"k c #505050",
"l c #535353",
"z c black",
"x c black",
"c c #585858",
"v c gray34",
"b c #555555",
"n c #4E4E4E",
"m c gray26",
"M c #434343",
"N c gray23",
"B c gray22",
"V c gray21",
"C c #343434",
"Z c #313131",
"A c gray18",
"S c #2C2C2C",
/* pixels */
"                     .......                      ",
"                   ...XXXXX...                    ",
"                  ..ooooooooo..                   ",
"                 ..OOOOOOOOOOO..                  ",
"                .................                 ",
"                .++++++..........                 ",
"                .................                 ",
"                ..@#.............                 ",
"                 ...............                  ",
"                 .+++++.........                  ",
"                 ...+++.........                  ",
"                  .++++........                   ",
"                  .............                   ",
"                     .########.                   ",
"                     .$$$..%&&.                   ",
"                     .*$....=&.                   ",
"                     .-.....;-.                   ",
"                     .:..##.;:.                   ",
"                     .>.####,%.                   ",
"                     .<..111,2.                   ",
"                     .3.11**45.                   ",
"                     .6.####46.                   ",
"                     .7.####,8.                   ",
"                     .7.11**,8.                   ",
"                     .6.1..*46.                   ",
"                     .6.1&&.46.                   ",
"                     .9.0000,q.                   ",
"                     .9.$$$$,q.                   ",
"                     .6.w.w.46.                   ",
"                     .6...w.46.                   ",
"                     .9e....e7.                   ",
"                     .rty......                   ",
"                     .....ui.pa                   ",
"                     ...sdds.fg                   ",
"                     ..hjkkl.zx                   ",
"                     ..cvhhv.x                    ",
"                     ..bbbhh.                     ",
"                     ..jjjjj.                     ",
"                     ..nnnnn.                     ",
"                ......ssssss.                     ",
"               ....ddddddddd.                     ",
"              ..mMMMMMMMMMMM.                     ",
"             ..$$$$$$$$$$$$$.                     ",
"             .NNNNNNNNNNNNNN.                     ",
"            ..<<<<<<BBBBVBBB.                     ",
"            ..CCCCCCCCCCCCCC.                     ",
"             ..ZZZZZZZZZZZZZ.                     ",
"             ...AAAwwwwwwwww.                     ",
"             .......SSSS.....                     ",
"              ...............                     "
};
