/* XPM */
static char *_05cfe6e7263419bd8037ee73e5a27cdiRozgIoviE0QA8cj[] = {
/* columns rows colors chars-per-pixel */
"50 50 43 1 ",
"  c None",
". c black",
"X c #4A4A48",
"o c #3F3F3E",
"O c #2A2A29",
"+ c #D7AD63",
"@ c white",
"# c #9829B8",
"$ c gray14",
"% c gray24",
"& c #3F3F3F",
"* c #5E5C5F",
"= c #767676",
"- c #2F2F2F",
"; c #606060",
": c gray37",
"> c #5B5B5B",
", c gray36",
"< c gray35",
"1 c #555555",
"2 c #565656",
"3 c gray32",
"4 c #535353",
"5 c #4E4E4E",
"6 c gray31",
"7 c #4B4B4B",
"8 c gray28",
"9 c gray26",
"0 c #434343",
"q c #444444",
"w c gray25",
"e c gray23",
"r c #3C3C3C",
"t c #373737",
"y c gray22",
"u c gray21",
"i c #343434",
"p c #353535",
"a c #313131",
"s c #323232",
"d c gray18",
"f c #2C2C2C",
"g c #2D2D2D",
/* pixels */
"                     .......                      ",
"                   ...XXXXX...                    ",
"                  ..ooooooooo..                   ",
"                 ..OOOOOOOOOOO..                  ",
"                .................                 ",
"                .+++++++++++++++.                 ",
"                .................                 ",
"                ....@#.....#@....                 ",
"                 ...............                  ",
"                 .+++++++++++++.                  ",
"                 .++++....+++++.                  ",
"                  .+++++++++++.                   ",
"           ...........................            ",
"         ....@@@@@@@@@@@@@@@@@@@@@@@....          ",
"         ..$$$$%&&&**======***&%%%$$$$..          ",
"        ..$$%%%%%&****=====***&&%%%%%$$..         ",
"       ...@@@@@@@@@@@@@@@@@@@@@@@@@@@@@...        ",
"       ..@@@@@@@@@@@@@@@@@@@@@@@@@@@@@@@..        ",
"       ..$$$$$%%%%%%&&&=====**&&%%%%%%$%..        ",
"       .$$%%%%%%%%%&&%*=====**%%%%%%%%%$$.        ",
"       .@@@@@...@@@@@@@@@@@@@@@@@...@@@@@.        ",
"       .@@@@.  .@@@@@@@@@@@@@@@@@.  .@@@@.        ",
"       .$$%%.  .%%*====*&&%%%%%%$.  .$$$$.        ",
"       .$..%.  .%&*====**%&%%%%$$.  .$..$.        ",
"       .$==..  .@@@@@@@@@@@@@@@@@.  ..==..        ",
"       .****.  .@@@@@@@@@@@@@@@@@.  .****.        ",
"       .&&&&.  .$%%%***=====*%%%$.  .&&&&.        ",
"       .-.-..  .$$$%%**=====**$$%.  ..-.-.        ",
"       ...-..  .@@@@@@@@@@@@@@@@@.  ..-...        ",
"        ....   .@@@@@@@@@@@@@@@@@.   ....         ",
"               .$%%%%%%%%%%%%%%%$.                ",
"               .$$$...........$$$.                ",
"               .....;;.   .;;.....                ",
"               ...::::.   .::::...                ",
"               ..>>>>,.   .,,,,,..                ",
"               ..<<<<<.   .<<<<<..                ",
"               ..11122.   .22222..                ",
"               ..33333.   .33334..                ",
"               ..55555.   .66666..                ",
"          ......777777.   .777777......           ",
"         ....888888888.   .888888888....          ",
"        ..900000000000.   .00000000qqqq..         ",
"       ..&&&&&&&&&&&&&.   .&&&&&wwwwwwww..        ",
"       .eeeeeeeeeeeeee.   .rrrrrrrrrrrrrr.        ",
"      ..ttttttyyyyuyyy.   .yyyiyyyyyyyyyy..       ",
"      ..iiiiiiiiiiiiii.   .pppppppppppppp..       ",
"       ..aaaaaaaaaaaaa.   .sssssssssssss..        ",
"       ...ddd---------.   .------------...        ",
"       .......ffff.....   .....gggg.......        ",
"        ...............   ...............         "
};
