/* XPM */
static char *_b993cdfea214cca9cdbd60d47700436pfftAQVq3W7UHBUA[] = {
/* columns rows colors chars-per-pixel */
"50 50 41 1 ",
"  c None",
". c black",
"X c #4A4A48",
"o c #3F3F3E",
"O c #2A2A29",
"+ c white",
"@ c gray14",
"# c gray24",
"$ c #3F3F3F",
"% c #5E5C5F",
"& c #767676",
"* c #606060",
"= c gray37",
"- c #5B5B5B",
"; c gray36",
": c gray35",
"> c #555555",
", c #565656",
"< c gray32",
"1 c #535353",
"2 c #4E4E4E",
"3 c gray31",
"4 c #4B4B4B",
"5 c gray28",
"6 c gray26",
"7 c #434343",
"8 c #444444",
"9 c gray25",
"0 c gray23",
"q c #3C3C3C",
"w c #373737",
"e c gray22",
"r c gray21",
"t c #343434",
"y c #353535",
"u c #313131",
"i c #323232",
"p c gray18",
"a c #2F2F2F",
"s c #2C2C2C",
"d c #2D2D2D",
/* pixels */
"                     .......                      ",
"                   ...XXXXX...                    ",
"                  ..ooooooooo..                   ",
"                 ..OOOOOOOOOOO..                  ",
"                .................                 ",
"                .................                 ",
"                .................                 ",
"                .................                 ",
"                 ...............                  ",
"                 ...............                  ",
"                 ...............                  ",
"                  .............                   ",
"           ...........................            ",
"         ....+++++++++++++++++++++++....          ",
"         ..@@@@#$$$%%&&&&&&%%%$###@@@@..          ",
"        ..@@#####$%%%%&&&&&%%%$$#####@@..         ",
"       ...+++++++++++++++++++++++++++++...        ",
"       ..+++++++++++++++++++++++++++++++..        ",
"       ..@@@@@######$$$&&&&&%%$$######@#..        ",
"       .@@#########$$#%&&&&&%%#########@@.        ",
"       .+++++...+++++++++++++++++...+++++.        ",
"       .++++.  .+++++++++++++++++.  .++++.        ",
"       .@@##.  .##%&&&&%$$######@.  .@@@@.        ",
"       .@..#.  .#$%&&&&%%#$####@@.  .@..@.        ",
"       .@....  .+++++++++++++++++.  ......        ",
"       ......  .+++++++++++++++++.  ......        ",
"       ......  .@###%%%&&&&&%###@.  ......        ",
"       ......  .@@@##%%&&&&&%%@@#.  ......        ",
"       ......  .+++++++++++++++++.  ......        ",
"        ....   .+++++++++++++++++.   ....         ",
"               .@###############@.                ",
"               .@@@...........@@@.                ",
"               .....**.   .**.....                ",
"               ...====.   .====...                ",
"               ..----;.   .;;;;;..                ",
"               ..:::::.   .:::::..                ",
"               ..>>>,,.   .,,,,,..                ",
"               ..<<<<<.   .<<<<1..                ",
"               ..22222.   .33333..                ",
"          ......444444.   .444444......           ",
"         ....555555555.   .555555555....          ",
"        ..677777777777.   .777777778888..         ",
"       ..$$$$$$$$$$$$$.   .$$$$$99999999..        ",
"       .00000000000000.   .qqqqqqqqqqqqqq.        ",
"      ..wwwwwweeeereee.   .eeeteeeeeeeeee..       ",
"      ..tttttttttttttt.   .yyyyyyyyyyyyyy..       ",
"       ..uuuuuuuuuuuuu.   .iiiiiiiiiiiii..        ",
"       ...pppaaaaaaaaa.   .aaaaaaaaaaaa...        ",
"       .......ssss.....   .....dddd.......        ",
"        ...............   ...............         "
};
