/* XPM */
static char *result[] = {
/* columns rows colors chars-per-pixel */
"32 32 222 2 ",
"   c white",
".  c #606060",
"X  c #FEFEFE",
"o  c #D7C5BA",
"O  c #CDB6A8",
"+  c #DECFC6",
"@  c #F4F0ED",
"#  c #FCFBFB",
"$  c #AA7F65",
"%  c #BA9B87",
"&  c #E3D8D1",
"*  c #FDFDFC",
"=  c #615F5E",
"-  c #615E5D",
";  c #60605F",
":  c #945F3C",
">  c #A07357",
",  c #635B57",
"<  c #655850",
"1  c #615E5C",
"2  c #B0866D",
"3  c #97603E",
"4  c #A07255",
"5  c #695446",
"6  c #6C4F3E",
"7  c #6B5040",
"8  c #635C58",
"9  c #B08871",
"0  c #B18970",
"q  c #D3BCAD",
"w  c #754221",
"e  c #704930",
"r  c #F7F4F2",
"t  c #BDA291",
"y  c #734427",
"u  c #6C4E3C",
"i  c #FCFAFA",
"p  c #C3AB9B",
"a  c #71472D",
"s  c #CFB9AB",
"d  c #D2BDB0",
"f  c #DCCDC4",
"g  c #6C4F3D",
"h  c #6F4A32",
"j  c #C9B3A5",
"k  c #B89A88",
"l  c #C1A898",
"z  c #F0E9E5",
"x  c #AE876F",
"c  c #A37253",
"v  c #A77758",
"b  c #AD8166",
"n  c #AB836A",
"m  c #AC866F",
"M  c #73492F",
"N  c #734529",
"B  c #C2A899",
"V  c #AD8C77",
"C  c #BA9D8B",
"Z  c #AF856B",
"A  c #9A613C",
"S  c #97552C",
"D  c #99582E",
"F  c #995A32",
"G  c #965832",
"H  c #975C37",
"J  c #854C28",
"K  c #7F4A29",
"L  c #FBFAF9",
"P  c #EBE2DC",
"I  c #C9AD9B",
"U  c #9F6641",
"Y  c #985529",
"T  c #995124",
"R  c #9A5326",
"E  c #995326",
"W  c #9A5327",
"Q  c #955124",
"!  c #8E4E25",
"~  c #804B2A",
"^  c #6F5342",
"/  c #FAF7F6",
"(  c #DECEC4",
")  c #B68E76",
"_  c #9D5C31",
"`  c #995224",
"'  c #9B5223",
"]  c #9A5223",
"[  c #975022",
"{  c #8E4D24",
"}  c #7B4D30",
"|  c #6C5446",
" . c #C5A998",
".. c #9E6A49",
"X. c #9B552A",
"o. c #9B5324",
"O. c #894C25",
"+. c #774E35",
"@. c #67564B",
"#. c #AB8267",
"$. c #8E4D25",
"%. c #985023",
"&. c #944F22",
"*. c #844C2A",
"=. c #71503A",
"-. c #645C57",
";. c #605F5F",
":. c #625D5A",
">. c #635C57",
",. c #A97C60",
"<. c #985932",
"1. c #985427",
"2. c #9A5225",
"3. c #995123",
"4. c #904E24",
"5. c #804E2F",
"6. c #6B5548",
"7. c #635C59",
"8. c #6E503D",
"9. c #625D59",
"0. c #685448",
"q. c #695346",
"w. c #695447",
"e. c #7E5134",
"r. c #874D27",
"t. c #925024",
"y. c #9A5123",
"u. c #975123",
"i. c #9D613B",
"p. c #B5927C",
"a. c #C6AE9F",
"s. c #A67F67",
"d. c #996849",
"f. c #9F6B4B",
"g. c #645A53",
"h. c #695345",
"j. c #6D4D39",
"k. c #6D4E3A",
"l. c #66584F",
"z. c #6C5546",
"x. c #784B2E",
"c. c #8D4D25",
"v. c #985124",
"b. c #975023",
"n. c #9B5E39",
"m. c #A2795F",
"M. c #965F3D",
"N. c #90532A",
"B. c #8E522B",
"V. c #6A5243",
"C. c #6C4E3B",
"Z. c #645B55",
"A. c #754E35",
"S. c #8B4E28",
"D. c #904F25",
"F. c #9C6B4D",
"G. c #DDD0C7",
"H. c #B28E78",
"J. c #986340",
"K. c #945B37",
"L. c #625E5B",
"P. c #635B56",
"I. c #615F5D",
"U. c #804E2E",
"Y. c #904F24",
"T. c #965125",
"R. c #935933",
"E. c #A97F65",
"W. c #FEFDFD",
"Q. c #A57D63",
"!. c #824C2A",
"~. c #914E23",
"^. c #97572E",
"/. c #C9B2A4",
"(. c #EBE2DD",
"). c #645C56",
"_. c #864B25",
"`. c #934E22",
"'. c #9A5224",
"]. c #975428",
"[. c #9D6642",
"{. c #CDB9AC",
"}. c #A17A62",
"|. c #D0BDB1",
" X c #FDFCFB",
".X c #F9F7F5",
"XX c #F8F4F3",
"oX c #924F23",
"OX c #9B5428",
"+X c #9A5D36",
"@X c #CFBBAF",
"#X c #8D5F41",
"$X c #8B4D27",
"%X c #8B4C25",
"&X c #9C613D",
"*X c #A97B5E",
"=X c #B99C89",
"-X c #765037",
";X c #BB9983",
":X c #625E5C",
">X c #67564C",
",X c #69594F",
"<X c #71523E",
"1X c #714F3A",
"2X c #695549",
"3X c #625D5B",
"4X c #715543",
"5X c #7F4E2F",
"6X c #7B4B2D",
"7X c #6D5342",
"8X c #635D59",
"9X c #645A54",
"0X c #72533E",
"qX c #814C2B",
"wX c #7E4726",
"eX c #6F4F3C",
"rX c #645C58",
"tX c #6D5545",
"yX c #784D33",
"uX c #764B31",
"iX c #6B5344",
"pX c #655952",
/* pixels */
"                                . . . . . . . . . . . . . . . . ",
"                X   o O + @     . . . . . . . . . . . . . . . . ",
"                #     $ % &   * = . - ; . . . . . . . . . . . . ",
"                      : >       , . < 1 . . . . . . . . . . . . ",
"                    2 3 4       5 6 7 8 . . . . . . . . . . . . ",
"                    9 0 q       w e 7 8 . . . . . . . . . . . . ",
"                            r t y u . . . . . . . . . . . . . . ",
"                            i p a . . . . . . . . . . . . . . . ",
"            X   #     s d     f g h . . . . . . . . . . . . . . ",
"    j k l z         x c v b n m M N . . . . . . . . . . . . . . ",
"    B V C         Z A S D F G H J K . . . . . . . . . . . . . . ",
"L             P I U Y T R R E W Q ! ~ ^ . = . . . . . . . . . . ",
"  /           ( ) _ ` ' ' ' ' ' ] [ { } | . ; . . . . . . . . . ",
"          #    ...X.o.' ' ' ' ' ' ] [ O.+.@.. . . . . . . . . . ",
"              #.$.%.' ' ' ' ' ' ' ' ] &.*.=.-.. ;.= = :.. >.:.. ",
"  X #         ,.<.1.2.' ' ' ' ' ' ' ' 3.4.5.6.7.. . . . 8.. . . ",
". = 9.< 0.q.w.; e.r.t.y.' ' ' ' ' ' ' ' u.i.p.      a.s.d.f.    ",
". - g.h.j.k.l.; z.x.c.v.' ' ' ' ' ' ' ' b.n.          m.M.N.B.  ",
". :.l.V.C.7 Z.. ; A.S.v.' ' ' ' ' ' ' ` D.F.          G.H.J.K.  ",
". = L.8 P.>.I.. ; ; U.Y.3.' ' ' ' ] T.R.E.      W.          Q.  ",
". . ; ; ;.; . . ; ; !.~.3.' ' ' ] b.^.E.    /.(.                ",
". . . . . . . ; ).; _.`.3.' ' ' '.].[.    {.}.|.         X.XXX  ",
". . . . . . ; ; ; ; ; oX3.] ] y.OX+X      @X#XV                 ",
". . . . . . . . ; ; ; ; $X! c.%X&X*X        =X                  ",
". . . . . . . . ; - ; ; ; ; ; -X;X                              ",
". . . . . . . . . . :X; ; ; ; ;        X          X             ",
". . . . . . . . . . . >.>X; ; L.*                               ",
". . . . . . . . . . I.,X<X1X2X3X                                ",
". . . . . . . . . . >.4X5X6X7X8X                                ",
". . . . . . . . . . 9X0XqXwXeXrX                                ",
". . . . . . . . . . >.tXyXuXiX8X                                ",
". . . . . . . . . . . pXV.0.P.=                                 "
};
