/* XPM */
static char *result[] = {
/* columns rows colors chars-per-pixel */
"32 32 6 1 ",
"  c #DBE6E7",
". c #C5D1D2",
"X c gray33",
"o c #B5D5D8",
"O c #869496",
"+ c #758284",
/* pixels */
"                                ",
"................................",
"XooooooooooooooooooooooooooooooX",
"XooooooooooooooooooooooooooooooX",
"XooooooooooooooooooooooooooooooX",
"XooooooooooooooooooooooooooooooX",
"XooooooooooooooooooooooooooooooX",
"XooooooooooooooooooooooooooooooX",
"XooooooooooooooooooooooooooooooX",
"XooooooooooooooooooooooooooooooX",
"XooooooooooooooooooooooooooooooX",
"XooooooooooooooooooooooooooooooX",
"XooooooooooooooooooooooooooooooX",
"XooooooooooooooooooooooooooooooX",
"XooooooooooooooooooooooooooooooX",
"XooooooooooooooooooooooooooooooX",
"XooooooooooooooooooooooooooooooX",
"XooooooooooooooooooooooooooooooX",
"XooooooooooooooooooooooooooooooX",
"XooooooooooooooooooooooooooooooX",
"XooooooooooooooooooooooooooooooX",
"XooooooooooooooooooooooooooooooX",
"XooooooooooooooooooooooooooooooX",
"XooooooooooooooooooooooooooooooX",
"XooooooooooooooooooooooooooooooX",
"XooooooooooooooooooooooooooooooX",
"XooooooooooooooooooooooooooooooX",
"XooooooooooooooooooooooooooooooX",
"XooooooooooooooooooooooooooooooX",
"XooooooooooooooooooooooooooooooX",
"OOOOOOOOOOOOOOOOOOOOOOOOOOOOOOOO",
"++++++++++++++++++++++++++++++++"
};
