/* XPM */
static char *_5e96668f27a451bcfd31fbd3dd64edaeHtvdId65jKhSUmH[] = {
/* columns rows colors chars-per-pixel */
"50 50 158 2 ",
"   c #130C01",
".  c #190F01",
"X  c #144D00",
"o  c #184E03",
"O  c #165400",
"+  c #195603",
"@  c #175A01",
"#  c #195C01",
"$  c #265C0F",
"%  c #1B6401",
"&  c #1C6C01",
"*  c #1E7401",
"=  c #1F7801",
"-  c #206D04",
";  c #29620F",
":  c #246B08",
">  c #2A690F",
",  c #217402",
"<  c #217C01",
"1  c #2C720F",
"2  c #2F7A0F",
"3  c #296310",
"4  c #2B6C10",
"5  c #2E7510",
"6  c #317413",
"7  c #307F11",
"8  c #3D6E22",
"9  c #3F7122",
"0  c #407423",
"q  c #427A22",
"w  c #238401",
"e  c #298207",
"r  c #258C01",
"t  c #288C03",
"y  c #33870F",
"u  c #348D0F",
"i  c #269300",
"p  c #299401",
"a  c #279900",
"s  c #299C01",
"d  c #2F9808",
"f  c #35940F",
"g  c #379B0F",
"h  c #389D0F",
"j  c #328310",
"k  c #348D10",
"l  c #359310",
"z  c #399612",
"x  c #379A10",
"c  c #389D10",
"v  c #2CA301",
"b  c #2DAB01",
"n  c #30A704",
"m  c #31AB04",
"M  c #39A20F",
"N  c #3CA90F",
"B  c #2FB301",
"V  c #31B302",
"C  c #32BB00",
"Z  c #3EB40F",
"A  c #3CA411",
"S  c #3DAD10",
"D  c #3FB510",
"F  c #479E1D",
"G  c #489F1F",
"H  c #40B60F",
"J  c #40B80F",
"K  c #49A31E",
"L  c #41B412",
"P  c #40BA10",
"I  c #4FBB1D",
"U  c #448323",
"Y  c #488326",
"T  c #468D23",
"R  c #479322",
"E  c #499523",
"W  c #4B9C23",
"Q  c #5B8639",
"!  c #5D8C39",
"~  c #5F9239",
"^  c #61963A",
"/  c #619C39",
"(  c #4DA422",
")  c #4FAC22",
"_  c #50A325",
"`  c #52AE25",
"'  c #5BA92F",
"]  c #52B423",
"[  c #53BC23",
"{  c #5AA530",
"}  c #5CAB30",
"|  c #64A43A",
" . c #66AC39",
".. c #69AE3C",
"X. c #66B139",
"o. c #69B53A",
"O. c #6ABC39",
"+. c #42C00F",
"@. c #42C010",
"#. c #56C422",
"$. c #62C32F",
"%. c #6CC339",
"&. c #6ECA39",
"*. c #72C93D",
"=. c #76994F",
"-. c #799E4F",
";. c #789C50",
":. c #6DAF40",
">. c #7BA44F",
",. c #7BA94F",
"<. c #6EB440",
"1. c #73B545",
"2. c #75BA46",
"3. c #7EB24F",
"4. c #7AA350",
"5. c #7DAC50",
"6. c #7EB350",
"7. c #79CC44",
"8. c #80BB4F",
"9. c #84A659",
"0. c #85AB58",
"q. c #81B453",
"w. c #81BC51",
"e. c #88B759",
"r. c #8ABF59",
"t. c #90AE62",
"y. c #93B364",
"u. c #95BF64",
"i. c #9EBD6D",
"p. c #82C14F",
"a. c #82C44F",
"s. c #84CA4F",
"d. c #84CC4F",
"f. c #88D64F",
"g. c #88D84F",
"h. c #82C250",
"j. c #84C052",
"k. c #85C751",
"l. c #83C950",
"z. c #85CB50",
"x. c #85CC50",
"c. c #8BC459",
"v. c #8ECB59",
"b. c #86D250",
"n. c #88D151",
"m. c #94C562",
"M. c #96C563",
"N. c #94C960",
"B. c #9FC16D",
"V. c #99D063",
"C. c #A2CC6D",
"Z. c #A4D46D",
"A. c #A5C074",
"S. c #A5C871",
"D. c #A8C874",
"F. c #AAD074",
"G. c #ABD674",
"H. c #B5D67E",
/* pixels */
"                                                                                                    ",
"                                                                                                    ",
"    F.C.m.r.w.8.8.w.8.8.s.f.f.l.a.a.a.h.p.p.4.;.;.5.;.;.6.x.x.6.w.w.w.s.s.s.x.x.x.8.8.q.9.t.i.D.    ",
"    B.m.w.1... . ./ ~ ~ ^ ^ ^ ^ | |  .O.%.%.| / | ~ ! ~ | ~ ~ / X.X.| ~ ~ / o.| o.~ ~ ^ 2.k.N.B.    ",
"    m.w.o.' W W ( T q q T ) ) W ( ( ( 0 0 0 [ [ ] T E W W W W T ( ( E q q U ( W E 0 0 Y $.*.n.y.    ",
"    r.1.' F z Z H j > > j M M u g g f 3 3 3 D D S f M M k l l 7 f f y > > 1 h h k > > 6 I $.7.0.    ",
"    w..._ z e , , < w w w s s t a a t + + + m m m w - , t t t p s s w @ @ % a a t @ @ : L [ *.j.    ",
"    8. .W f % @ @ % % % % % % & i i i i p p v v v a s v a i i p a a r O O = v v v r r r 5 U ~ z.    ",
"    p.o.( h % @ @ # # # @ @ @ & i i i s v v v v v v b b a a a p p p r O O < B B b a a p > 0 ! z.    ",
"    8.o.( h - @ @ # # # @ @ @ & p p p a s s < , w v b b a a a p p p p & & r B B v i i t > 0 ! 3.    ",
"    8./ U 2 < < < w w w < = = & % @ % p p p % % % & & & % % & w b b s r r a B B b v v v f (  .4.    ",
"    8.~ q > w i i a a a i w w * X X @ p p p @ @ # @ @ # @ @ % w b b v r r a b b b b b m h ) o.4.    ",
"    a.~ q > w i i s v v a w w * X X @ a a p @ @ # # @ @ & & & w b b v p p v B b b b b m x ( X.4.    ",
"    d.X.( x p p p v B B v s s r * , < b b v @ @ # % O % % @ @ < s s v v v v p p w & & , A ) o.4.    ",
"    d.&.#.J v a a v B B B b b v r r r r w i @ @ # % @ % # @ @ w a a v v v v w w = X X # S ] O.4.    ",
"    h.&.#.J v a a a i i v b b v r r w @ O % @ @ % w w w % @ @ w a a p s s a = = * X X # S ] O.5.    ",
"    >.%.[ Z m v v r @ @ w v s w r r w # @ @ w r r a a a % @ @ r v s r < < * @ @ % O O % S ] %.=.    ",
"    >.O.[ Z V B B i O @ # @ O @ w w w # @ @ b C C a a a % @ @ i b b a w w = @ @ @ O O % Z [ %.-.    ",
"    ,.O.[ Z V B B r @ @ % # # @ r r w & & & b C V a a a % @ @ i b b a w w = @ @ @ O O % Z [ %.;.    ",
"    8. .( f p i i = @ @ & = = & w w w a a i v b b s s s * @ @ w v b r = = & % % @ % % & N ] %.d.    ",
"    8.! 8 $ + @ O @ @ @ % X X X @ @ % a a a b b b b b b w @ @ & i i * @ @ % , , # < < w M ) o.a.    ",
"    w.~ 0 3 + O O @ % % % X X X @ @ % a a p b b b b b b w @ @ & i i * @ @ < V V , < < w M ] %.a.    ",
"    s. .W k + @ @ & a a < @ @ @ % & & p p p i i i v b b % # % i i i < % % r C C r s s n +.#.&.s.    ",
"    =.Q 0 3 + @ @ = r r i p p w a a i p p p @ @ # r i i i i i a i i i i i v C C r s s v +.#.&.g.    ",
"    =.Q 0 3 + @ @ * r r i p a w a a i p p p @ @ @ w i i i i i a i i r i i r i i r s s v @.#.&.g.    ",
"    ;.! 0 3 % % % < r r r r i w a a p b b v # # % r i i w w w V C C < @ @ * i i w v v s ; 9 ! 4.    ",
"    w.! 0 3 w a a a a a < @ @ & p p p i i i i i i i i i i i i v C C , O @ < s s b C C V ; 9 ! 4.    ",
"    w.! 0 3 w a a a a a < O @ & p p p i i i p p p i i i i i i v V V = O @ < s s b C C V ; 0 ! 4.    ",
"    w.! 0 3 w a a a a a < @ @ & p p p i i i v v v p p p i i i < , , # O @ < s s b C C V 3 0 ! 4.    ",
"    d.o.( h n v v < O O @ @ @ = b b b i i i v v v r w w V C C < O O @ O @ # % % # O O + 4 q ~ 4.    ",
"    d.o.( h v v v w X X @ @ @ = B B b i i i b v v r w w V C C < @ O @ @ @ # % % # O O @ 4 q ~ 4.    ",
"    p.%.] S s s s i a a @ @ @ < b b b p p p v v v < w w b V V = @ @ @ @ @ @ + + @ O O + 4 q ~ 6.    ",
"    p.%.[ D , # # , i r % X O < v v v v v v & % % @ @ % , , , # @ @ # % % # @ @ @ @ @ # 4 q ! 8.    ",
"    p.%.[ D & X O & w w = X X < v v v v v v # # % O O @ & % % @ @ @ # % % # @ @ @ @ @ # 4 q ! 8.    ",
"    p.O.[ S - O O * w w i r r r v v v v b v # # % w w w & % % @ O @ # % % % < < % @ @ # 4 q ! w.    ",
"    x.X.( x t i i = # # = p p w % % * % % % @ @ @ i a a r w w % @ @ @ + + % r r w * * w j E | w.    ",
"    b.X.W l s v v = X X & r r < # # % O O @ O O @ r a a i r r & @ @ @ O O % r r r r r a u W  .8.    ",
"    b.X.W l s v v = X X & r r < # # % & & * O O @ r a a p p p % @ @ @ O @ % & & < r r s u W  .p.    ",
"    x.o.) c s s s i = & i s s w @ @ % r r r w w w i i i p a a @ O O < < < < X X & w w p f W  .a.    ",
"    s.O.] N s p p v = # i v v w O O # r r r a a a i r r p a a @ X X r r r w X X , i i a f W  .a.    ",
"    s.O.] N s p p s < % < v v r O O # p p p a a a i r r i i i % @ @ r r r r & & < i i a f W  .h.    ",
"    a.o.) M p r r r s v w b b p & & < v v v i i i p p p * % % < w w w & & w a a a v v v h ( o.w.    ",
"    p. .W l t r r r r r w b b v r r i v v v w w r p a a @ X X r b b < X X * a a v b b m M ) o.w.    ",
"    k.X.W z d s s p p p a m m v t t t m m m t t t a s s # O O p V V < o o , s v s m m m A ` O.q.    ",
"    c.1.} G L +.+.h y y x Z Z S c c f c c x x x x x x x 4 3 3 x H H x 5 5 k P P c D D L K } 2.9.    ",
"    m.w.<.} ] #.#.R 8 8 R [ [ [ ] ] ) 0 0 q ) ) ) ( W W U q q ) [ [ ] ( ( ) #.#.) [ [ [ { :.w.y.    ",
"    C.m.w.1.%.&.&.| Q Q | &.&.&.O.O.o.! Q ~ o.o.o. . . .~ ! ! o.&.&.O.o.o.o.&.&.o.&.&.%.1.w.m.A.    ",
"    G.Z.V.v.z.d.d.8.,.,.6.h.h.h.p.p.w.-.-.5.w.w.w.6.6.5.4.>.>.w.z.z.z.k.k.w.6.3.q.h.h.j.e.u.S.H.. . ",
"                                                                                                . . ",
"                                                                                                    "
};
